# xmcd CD database file
#
# Track frame offsets:
#	150
#	27842
#	60238
#	81974
#	113584
#	147305
#	176150
#	204930
#
# Disc length: 3120 seconds
#
# Revision: 0
# Processed by: cddbd v1.5.2PL0 Copyright (c) Steve Scherf et al.
# Submitted via: CDex 1.70beta3
#
DISCID=620c2e08
DTITLE=Super Trombone - Take the A Train -Plays Ellington-
DYEAR=2007
DGENRE=Jazz
TTITLE0=Take the a Train
TTITLE1=Don't Get Around Much Anymore
TTITLE2=It Don't mean a Thing (If It ain't Got That Swing)
TTITLE3=Satin Dall
TTITLE4=I Let a Song Go out of My Heart
TTITLE5=Caravan
TTITLE6=Mellow Moment
TTITLE7=In a Sentimental Mood
EXTD=YEAR: 2007
EXTT0=
EXTT1=
EXTT2=
EXTT3=
EXTT4=
EXTT5=
EXTT6=
EXTT7=
PLAYORDER=
